<svg height="100" width="100" xmlns="http://www.w3.org/2000/svg" data-name="Layer 21"><path d="M90.92 47.44a39.86 39.86 0 00-.54-4.59 41 41 0 00-80.75 0 37.8 37.8 0 00-.55 4.59C9 48.36 9 49.2 9 50s0 1.64.08 2.56a37.8 37.8 0 00.55 4.59 41 41 0 0080.74 0 37.8 37.8 0 00.55-4.59c0-.92.08-1.76.08-2.56s0-1.64-.08-2.56zM88.54 44c0 .3.08.6.12.91s.06.42.08.63.07.63.09.94H67.44a17.2 17.2 0 00-.71-2.48h21.81zM50 11a38.91 38.91 0 0138.17 31h-22.3a17.74 17.74 0 00-31.74 0h-22.3A38.91 38.91 0 0150 11zm15.79 39a14.76 14.76 0 01-.08 1.5c0 .34-.09.67-.14 1s-.11.67-.19 1a15.19 15.19 0 01-.78 2.5 18.075 18.075 0 01-1 2 15.75 15.75 0 01-27.2 0c-.19-.33-.37-.66-.54-1s-.32-.66-.46-1a15.19 15.19 0 01-.78-2.48c-.08-.33-.13-.66-.19-1s-.11-.66-.14-1a14.1 14.1 0 010-3c0-.34.09-.67.14-1s.11-.67.19-1A15.19 15.19 0 0135.4 44c.14-.34.3-.67.46-1s.35-.67.54-1a15.75 15.75 0 0127.2 0c.19.33.37.66.54 1s.32.66.46 1a15.19 15.19 0 01.78 2.48c.08.33.13.66.19 1s.11.66.14 1a14.76 14.76 0 01.08 1.52zm-54.53-4.45c0-.2.05-.4.08-.61s.07-.61.12-.92h21.81a17.2 17.2 0 00-.71 2.48H11.17c.02-.32.05-.63.09-.95zm-.23 6v-.12-1.38V48.5h21.26c0 .5-.08 1-.08 1.5s0 1 .08 1.5zm.43 4.45c-.05-.3-.08-.6-.12-.91s-.06-.42-.08-.63-.07-.63-.09-.94h21.39a17.2 17.2 0 00.71 2.48H11.46zM50 89a38.91 38.91 0 01-38.17-31h22.3a17.74 17.74 0 0031.74 0h22.3A38.91 38.91 0 0150 89zm38.74-34.55c0 .2 0 .4-.08.61s-.07.61-.12.92H66.73a17.2 17.2 0 00.71-2.48h21.39c-.02.32-.05.63-.09.95zm.26-3.07v.12H67.71c0-.5.08-1 .08-1.5s0-1-.08-1.5H89v2.88z"/><path d="M58.42 47.5a7 7 0 00-.37-1 8.75 8.75 0 00-2.74-3.5 8.42 8.42 0 00-1.66-1 8.63 8.63 0 00-7.3 0 8.42 8.42 0 00-1.66 1A8.75 8.75 0 0042 46.5a7 7 0 00-.37 1 8.52 8.52 0 00-.23 1 8.11 8.11 0 000 3 8.52 8.52 0 00.23 1 7 7 0 00.37 1 8.75 8.75 0 002.69 3.5 8.42 8.42 0 001.66 1 8.63 8.63 0 007.3 0 8.42 8.42 0 001.66-1 8.75 8.75 0 002.74-3.48 7 7 0 00.37-1 8.52 8.52 0 00.23-1 8.11 8.11 0 000-3 8.52 8.52 0 00-.23-1.02zm-1.81 4a5.79 5.79 0 01-.31 1 6.22 6.22 0 01-.5 1 6.76 6.76 0 01-11.6 0 6.22 6.22 0 01-.5-1 5.79 5.79 0 01-.31-1 6.34 6.34 0 010-3 5.79 5.79 0 01.31-1 6.22 6.22 0 01.5-1 6.76 6.76 0 0111.6 0 6.22 6.22 0 01.5 1 5.79 5.79 0 01.31 1 6.34 6.34 0 010 3z"/></svg>