<svg height="100" width="100" xmlns="http://www.w3.org/2000/svg" viewBox="0 0 1.121 1.121" fill-rule="evenodd" clip-rule="evenodd" shape-rendering="geometricPrecision" text-rendering="geometricPrecision" image-rendering="optimizeQuality"><defs><style>.fil1{fill:#000;fill-rule:nonzero}</style></defs><path d="M0 1.121V0h1.121v1.121H0z" fill="none"/><path class="fil1" d="M.171.561a.035.035 0 01-.035.035.035.035 0 01-.035-.035c0-.127.051-.242.134-.326a.462.462 0 01.651 0 .036.036 0 010 .049.035.035 0 01-.05 0A.388.388 0 00.561.171a.386.386 0 00-.276.114.386.386 0 00-.114.276zm.78 0c0-.02.015-.035.035-.035.019 0 .035.015.035.035a.459.459 0 01-.785.325.034.034 0 010-.049.034.034 0 01.049 0 .385.385 0 00.552 0A.394.394 0 00.951.561z"/><path class="fil1" d="M.01.527a.037.037 0 010-.05.037.037 0 01.05 0l.106.107a.034.034 0 010 .049.034.034 0 01-.049 0L.01.527z"/><path class="fil1" d="M.223.477a.036.036 0 01.049 0 .035.035 0 010 .05L.166.633a.034.034 0 01-.049 0 .034.034 0 010-.049L.223.477zM1.111.594a.035.035 0 010 .05.034.034 0 01-.049 0L.955.538a.037.037 0 010-.05.035.035 0 01.05 0l.106.106z"/><path class="fil1" d="M.899.644a.035.035 0 01-.05 0 .035.035 0 010-.05L.955.488a.035.035 0 01.05 0 .035.035 0 010 .05L.899.644z"/></svg>